<?xml version="1.0" standalone="no"?>
<!DOCTYPE svg PUBLIC "-//W3C//DTD SVG 20010904//EN"
 "http://www.w3.org/TR/2001/REC-SVG-20010904/DTD/svg10.dtd">
<svg version="1.0" xmlns="http://www.w3.org/2000/svg"
 width="512.000000pt" height="512.000000pt" viewBox="0 0 512.000000 512.000000"
 preserveAspectRatio="xMidYMid meet">

<g transform="translate(0.000000,512.000000) scale(0.100000,-0.100000)"
fill="#000000" stroke="none">
<path d="M0 2560 l0 -2560 2560 0 2560 0 0 2560 0 2560 -2560 0 -2560 0 0
-2560z m1608 599 c-7 -5 -20 -9 -28 -9 -32 0 -137 -59 -188 -105 -30 -27 -76
-81 -103 -121 -49 -73 -69 -94 -69 -74 0 6 -4 9 -8 6 -5 -3 -6 9 -4 27 4 31 4
31 -12 12 -17 -20 -17 -20 -11 3 7 23 -10 32 -18 10 -3 -7 -3 5 -1 26 8 102
251 235 427 233 19 0 24 -3 15 -8z m270 -294 c3 -75 1 -81 -17 -81 -15 0 -24
13 -38 56 l-18 55 -58 3 -57 3 2 -273 3 -273 43 -9 c29 -6 42 -14 42 -25 0
-15 -16 -17 -145 -17 -96 1 -145 5 -145 12 0 6 17 15 38 20 l37 9 3 278 2 277
-53 0 -54 0 -28 -62 c-23 -52 -29 -59 -36 -43 -4 11 -8 14 -8 8 -1 -7 -4 -13
-8 -13 -5 0 -7 36 -5 80 l4 80 246 -2 247 -3 3 -80z m256 33 c42 -65 152 -241
203 -325 20 -35 40 -63 44 -63 11 0 11 334 0 363 -6 15 -19 27 -33 29 -15 2
-24 11 -26 26 -3 23 -3 23 110 20 97 -3 113 -5 116 -20 2 -12 -8 -22 -32 -32
-19 -8 -39 -23 -45 -34 -7 -14 -11 -117 -11 -291 l0 -271 -47 0 -48 0 -40 66
c-22 37 -49 82 -60 100 -11 18 -53 85 -92 148 -40 64 -73 120 -73 126 0 5 -4
10 -9 10 -5 0 -13 9 -16 20 -18 57 -25 3 -25 -195 l0 -214 33 -9 c23 -6 33
-15 35 -31 3 -21 1 -23 -20 -18 -12 4 -60 7 -105 7 -67 0 -83 3 -83 15 0 8 3
14 8 14 15 -3 38 2 51 10 10 7 13 58 12 259 0 137 -4 257 -7 267 -4 9 -20 19
-36 22 -20 4 -27 10 -24 20 3 8 1 11 -4 8 -6 -3 -10 1 -10 9 0 13 16 16 100
16 l100 0 34 -52z m2198 -219 c-2 -41 1 -88 7 -106 8 -29 7 -31 -17 -35 l-27
-4 3 93 c3 61 0 98 -8 107 -9 11 -7 15 7 19 34 9 38 1 35 -74z m-1607 51 c0
-8 -8 -16 -17 -18 -13 -2 -18 3 -18 18 0 15 5 20 18 18 9 -2 17 -10 17 -18z
m1043 -3 c2 -10 -3 -17 -12 -17 -18 0 -29 16 -21 31 9 14 29 6 33 -14z m-788
-27 c0 -12 7 -20 18 -21 16 -1 16 -2 0 -6 -14 -4 -18 -15 -18 -58 0 -41 4 -54
18 -60 16 -6 16 -7 0 -16 -38 -21 -64 17 -56 86 2 19 -1 37 -7 39 -7 3 -7 7 1
13 6 4 13 16 17 26 9 23 27 22 27 -3z m684 5 c-4 -9 2 -18 17 -24 l24 -10 -22
0 c-21 -1 -23 -6 -23 -55 0 -48 3 -56 22 -62 l23 -7 -24 -9 c-36 -13 -51 6
-51 67 0 33 -5 56 -12 59 -10 5 -10 7 0 12 6 3 12 12 12 19 0 12 13 22 32 24
4 1 5 -6 2 -14z m-943 -37 c0 -7 0 -32 -1 -56 -1 -24 4 -50 10 -58 10 -12 8
-14 -16 -14 l-29 0 3 60 c3 45 0 60 -10 61 -7 0 -4 4 7 9 28 12 35 12 36 -2z
m89 2 c0 -7 6 -7 19 0 48 25 64 6 73 -85 4 -48 4 -50 -21 -50 -25 0 -26 2 -26
60 0 53 -2 60 -20 60 -18 0 -20 -7 -20 -58 0 -57 0 -57 -30 -56 -16 0 -24 3
-17 6 15 6 16 99 1 109 -8 4 -7 9 2 15 19 12 39 11 39 -1z m327 -19 c16 -33 9
-41 -38 -41 -42 0 -44 -2 -29 -31 8 -13 22 -19 48 -19 l37 -1 -27 -15 c-52
-28 -98 2 -98 62 0 64 80 97 107 45z m85 16 c4 -7 12 -6 23 3 14 12 18 12 26
-1 6 -10 3 -15 -15 -17 -28 -4 -37 -29 -26 -76 7 -32 6 -34 -19 -38 l-27 -4 4
63 c3 44 1 63 -7 63 -7 0 -10 4 -7 8 7 12 40 11 48 -1z m197 -5 c5 -9 10 -42
13 -72 4 -53 4 -55 -21 -55 -25 0 -26 2 -26 60 0 53 -2 60 -20 60 -18 0 -20
-7 -20 -60 0 -59 -1 -60 -27 -60 -17 0 -23 4 -18 10 14 13 12 102 -2 111 -16
10 10 19 67 21 33 1 47 -3 54 -15z m151 -1 c5 -11 10 -37 10 -58 0 -22 6 -45
12 -51 10 -10 4 -13 -32 -12 -25 1 -54 1 -64 0 -47 -2 -37 60 13 74 17 5 31
15 31 23 0 18 -33 30 -38 15 -2 -7 -11 -12 -20 -12 -14 1 -12 5 7 20 30 25 67
26 81 1z m200 -40 c0 -33 2 -66 5 -74 5 -10 -2 -13 -27 -9 -18 3 -28 7 -23 9
13 4 7 113 -7 113 -21 0 2 16 26 18 25 2 26 0 26 -57z m150 39 c48 -48 5 -139
-59 -125 -36 8 -51 30 -51 74 0 38 31 71 65 71 14 0 34 -9 45 -20z m168 7 c7
-5 12 -32 12 -62 0 -33 5 -55 13 -58 6 -3 -2 -6 -19 -6 l-31 -1 5 48 c3 36 0
51 -12 61 -26 22 -39 0 -35 -57 4 -48 2 -51 -21 -54 -26 -4 -26 -3 -22 59 3
49 1 63 -9 63 -12 0 -12 2 0 9 19 12 103 11 119 -2z m150 1 c7 -7 12 -33 12
-59 0 -26 5 -51 11 -55 8 -5 6 -10 -5 -16 -11 -6 -22 -6 -31 2 -10 8 -20 8
-32 2 -25 -14 -53 3 -53 33 0 18 8 26 35 35 40 13 51 50 15 50 -12 0 -20 -7
-20 -17 0 -13 -3 -14 -12 -5 -8 8 -8 15 2 27 15 18 61 20 78 3z m-1068 -292
c0 -62 -1 -64 -27 -69 -36 -7 -53 8 -53 44 0 19 7 32 23 40 18 9 20 9 10 -2
-16 -16 -17 -55 -2 -64 16 -11 19 -3 20 58 1 41 5 57 15 57 10 0 14 -16 14
-64z m-522 -6 c0 -45 -3 -60 -14 -60 -10 0 -14 15 -14 60 0 44 4 60 14 60 10
0 13 -16 14 -60z m54 40 c7 -11 21 -20 30 -20 11 0 18 -8 18 -19 0 -31 17 -34
24 -5 4 15 9 24 12 21 8 -8 -18 -77 -29 -77 -4 0 -15 16 -23 35 -14 35 -28 44
-39 25 -3 -5 -14 -10 -23 -9 -11 0 -12 3 -4 6 6 2 12 15 12 28 0 13 -6 26 -12
28 -8 3 -6 6 4 6 10 1 23 -8 30 -19z m255 -42 c-1 -39 -7 -63 -14 -66 -10 -3
-13 14 -13 62 0 51 3 66 14 66 11 0 14 -14 13 -62z m-116 35 c1 -10 0 -33 -1
-50 -1 -21 3 -33 11 -33 10 0 10 -3 1 -12 -17 -17 -30 0 -32 42 -3 55 -1 70
10 70 6 0 10 -8 11 -17z m222 -3 c3 -11 2 -20 -3 -20 -8 0 -5 -36 5 -62 8 -21
-5 -24 -23 -6 -13 13 -17 90 -5 101 11 12 21 8 26 -13z m-50 -80 c-3 -11 -9
-17 -14 -15 -10 7 -1 35 11 35 5 0 6 -9 3 -20z m-1000 -125 c-3 -9 -8 -14 -10
-11 -3 3 -2 9 2 15 9 16 15 13 8 -4z"/>
<path d="M1226 2885 c-9 -26 -7 -32 5 -12 6 10 9 21 6 23 -2 3 -7 -2 -11 -11z"/>
<path d="M2006 2332 c-2 -4 4 -8 14 -8 10 0 16 4 14 8 -3 4 -9 8 -14 8 -5 0
-11 -4 -14 -8z"/>
<path d="M3077 2664 c-14 -15 -6 -34 14 -34 14 0 19 5 17 17 -3 18 -20 27 -31
17z"/>
<path d="M3512 2598 c-18 -18 -14 -38 8 -38 15 0 20 7 20 25 0 27 -9 32 -28
13z"/>
<path d="M3854 2659 c-22 -36 7 -132 35 -115 12 8 15 84 5 110 -7 18 -30 21
-40 5z"/>
<path d="M4185 2596 c-19 -14 -19 -16 -3 -32 16 -16 18 -16 23 -1 4 9 5 23 3
32 -3 14 -5 14 -23 1z"/>
</g>
</svg>
